<svg className="select-none" xmlns="http://www.w3.org/2000/svg" width="64" height="64" viewBox="0 0 512 512"
  fill="none">
  <rect width="512" height="512" rx="64" fill="#498FF8" />
  <g filter="url(#filter0_d_99_4)">
    <path fill-rule="evenodd" clip-rule="evenodd"
      d="M154 103C144.059 103 136 111.059 136 121V391C136 400.941 144.059 409 154 409H198C207.941 409 216 400.941 216 391C216 381.059 207.941 373 198 373H172V139H198C207.941 139 216 130.941 216 121C216 111.059 207.941 103 198 103H154ZM264 103C254.059 103 246 111.059 246 121C246 130.913 254.013 138.954 263.914 139L263.959 139.001C264.045 139.002 264.227 139.007 264.5 139.018C265.045 139.04 265.947 139.089 267.155 139.195C269.576 139.407 273.186 139.845 277.58 140.744C286.431 142.555 298.075 146.153 309.586 153.217C331.459 166.639 356 194.409 356 256C356 317.591 331.459 345.361 309.586 358.783C298.075 365.847 286.431 369.445 277.58 371.256C273.186 372.155 269.576 372.593 267.155 372.805C265.947 372.911 265.045 372.96 264.5 372.982C264.365 372.988 264.253 372.991 264.164 372.994C264.071 372.997 264.003 372.999 263.959 372.999L263.914 373C254.012 373.047 246 381.088 246 391C246 400.941 254.059 409 264 409L264 391C264 409 264.011 409 264.023 409L264.048 409L264.107 409C264.15 409 264.199 408.999 264.255 408.999C264.367 408.998 264.506 408.996 264.672 408.992C265.002 408.986 265.438 408.974 265.971 408.952C267.037 408.908 268.498 408.825 270.298 408.668C273.892 408.353 278.877 407.736 284.795 406.525C296.569 404.117 312.425 399.278 328.414 389.467C361.541 369.139 392 329.409 392 256C392 182.591 361.541 142.861 328.414 122.533C312.425 112.722 296.569 107.883 284.795 105.475C278.877 104.264 273.893 103.647 270.298 103.332C268.498 103.175 267.037 103.092 265.971 103.048C265.438 103.026 265.002 103.014 264.672 103.008C264.506 103.004 264.367 103.002 264.255 103.001C264.199 103.001 264.15 103 264.107 103L264.048 103L264.023 103C264.011 103 264 103 264 121V103Z"
      fill="#0F1115" />
  </g>
  <defs>
    <filter id="filter0_d_99_4" x="86" y="57" width="356" height="406" filterUnits="userSpaceOnUse"
      color-interpolation-filters="sRGB">
      <feFlood flood-opacity="0" result="BackgroundImageFix" />
      <feColorMatrix in="SourceAlpha" type="matrix" values="0 0 0 0 0 0 0 0 0 0 0 0 0 0 0 0 0 0 127 0"
        result="hardAlpha" />
      <feOffset dy="4" />
      <feGaussianBlur stdDeviation="25" />
      <feComposite in2="hardAlpha" operator="out" />
      <feColorMatrix type="matrix" values="0 0 0 0 0.103938 0 0 0 0 0.204167 0 0 0 0 0.0876215 0 0 0 0.25 0" />
      <feBlend mode="normal" in2="BackgroundImageFix" result="effect1_dropShadow_99_4" />
      <feBlend mode="normal" in="SourceGraphic" in2="effect1_dropShadow_99_4" result="shape" />
    </filter>
  </defs>
</svg>
