<svg width="512" height="512" viewBox="0 0 512 512" fill="none" xmlns="http://www.w3.org/2000/svg">
<g filter="url(#filter0_d_57_6)">
<path fill-rule="evenodd" clip-rule="evenodd" d="M152 96C142.059 96 134 104.059 134 114V398C134 407.941 142.059 416 152 416H199C208.941 416 217 407.941 217 398C217 388.059 208.941 380 199 380H170V132H199C208.941 132 217 123.941 217 114C217 104.059 208.941 96 199 96H152ZM268 96C258.059 96 250 104.059 250 114C250 123.914 258.015 131.956 267.919 132L267.977 132.001C268.075 132.003 268.274 132.008 268.569 132.02C269.159 132.044 270.126 132.096 271.416 132.209C274.004 132.435 277.849 132.901 282.527 133.855C291.944 135.777 304.341 139.597 316.603 147.103C339.978 161.41 366 190.93 366 256C366 321.07 339.978 350.59 316.603 364.897C304.341 372.403 291.944 376.223 282.527 378.145C277.849 379.099 274.004 379.565 271.416 379.791C270.126 379.904 269.159 379.956 268.569 379.98C268.274 379.992 268.075 379.997 267.977 379.999L267.921 380C258.016 380.043 250 388.085 250 398C250 407.941 258.059 416 268 416V398C268 416 268.011 416 268.023 416L268.048 416L268.108 416C268.151 416 268.201 415.999 268.259 415.999C268.374 415.997 268.517 415.996 268.688 415.992C269.03 415.985 269.482 415.973 270.037 415.95C271.146 415.905 272.671 415.819 274.552 415.654C278.309 415.326 283.526 414.682 289.723 413.418C302.056 410.902 318.659 405.847 335.397 395.603C370.022 374.41 402 332.93 402 256C402 179.07 370.022 137.59 335.397 116.397C318.659 106.153 302.056 101.098 289.723 98.5821C283.526 97.3177 278.309 96.6742 274.552 96.3458C272.671 96.1812 271.146 96.0949 270.037 96.0496C269.482 96.027 269.03 96.0146 268.688 96.0078C268.517 96.0045 268.374 96.0025 268.259 96.0014C268.201 96.0008 268.151 96.0005 268.108 96.0003L268.049 96.0001L268.023 96C268.011 96 268 96 268 114V96Z" fill="#498FF8"/>
</g>
<defs>
<filter id="filter0_d_57_6" x="84" y="50" width="368" height="420" filterUnits="userSpaceOnUse" color-interpolation-filters="sRGB">
<feFlood flood-opacity="0" result="BackgroundImageFix"/>
<feColorMatrix in="SourceAlpha" type="matrix" values="0 0 0 0 0 0 0 0 0 0 0 0 0 0 0 0 0 0 127 0" result="hardAlpha"/>
<feOffset dy="4"/>
<feGaussianBlur stdDeviation="25"/>
<feComposite in2="hardAlpha" operator="out"/>
<feColorMatrix type="matrix" values="0 0 0 0 0.103938 0 0 0 0 0.204167 0 0 0 0 0.0876215 0 0 0 0.25 0"/>
<feBlend mode="normal" in2="BackgroundImageFix" result="effect1_dropShadow_57_6"/>
<feBlend mode="normal" in="SourceGraphic" in2="effect1_dropShadow_57_6" result="shape"/>
</filter>
</defs>
</svg>
